<?xml version="1.0" encoding="UTF-8"?>
<svg width="264px" height="267px" viewBox="0 0 264 267" version="1.1" xmlns="http://www.w3.org/2000/svg" xmlns:xlink="http://www.w3.org/1999/xlink">
    <title>Group 2</title>
    <defs>
        <rect id="path-1" x="2.84217094e-14" y="0" width="264" height="267"></rect>
        <rect id="path-3" x="2.84217094e-14" y="0" width="264" height="267"></rect>
        <circle id="path-5" cx="120" cy="120" r="120"></circle>
        <path d="M12,147 C12,213.27417 65.72583,267 132,267 C198.27417,267 252,213.27417 252,147 L264,147 L264,0 L0,0 L0,147 L12,147 Z" id="path-7"></path>
        <path d="M124,144.610951 L124,163 L128,163 L128,163 C167.764502,163 200,195.235498 200,235 L200,244 L0,244 L0,235 C0,195.235498 32.235498,163 72,163 L72,163 L76,163 L76,144.610951 C58.7626345,136.422372 46.3722246,119.687011 44.3051388,99.8812385 C38.4803105,99.0577866 34,94.0521096 34,88 L34,74 C34,68.0540074 38.3245733,63.1180731 44,62.1659169 L44,56 L44,56 C44,25.072054 69.072054,0 100,0 L100,0 L100,0 C130.927946,0 156,25.072054 156,56 L156,62.1659169 C161.675427,63.1180731 166,68.0540074 166,74 L166,88 C166,94.0521096 161.51969,99.0577866 155.694861,99.8812385 C153.627775,119.687011 141.237365,136.422372 124,144.610951 Z" id="path-9"></path>
        <path d="M124,144.610951 L124,163 L128,163 L128,163 C167.764502,163 200,195.235498 200,235 L200,244 L0,244 L0,235 C0,195.235498 32.235498,163 72,163 L72,163 L76,163 L76,144.610951 C58.7626345,136.422372 46.3722246,119.687011 44.3051388,99.8812385 C38.4803105,99.0577866 34,94.0521096 34,88 L34,74 C34,68.0540074 38.3245733,63.1180731 44,62.1659169 L44,56 L44,56 C44,25.072054 69.072054,0 100,0 L100,0 L100,0 C130.927946,0 156,25.072054 156,56 L156,62.1659169 C161.675427,63.1180731 166,68.0540074 166,74 L166,88 C166,94.0521096 161.51969,99.0577866 155.694861,99.8812385 C153.627775,119.687011 141.237365,136.422372 124,144.610951 Z" id="path-11"></path>
        <path d="M149.544255,0.3304167 C178.784209,9.4878872 200,36.7921987 200,69.051724 L200,78 L0,78 L0,69.051724 C0,36.3969699 21.7388273,8.8195914 51.5340368,0.0020332 C51.182234,1.4201865 51,2.8712315 51,4.3476251 C51,20.6289957 73.161905,33.8276544 100.5,33.8276544 C127.838095,33.8276544 150,20.6289957 150,4.3476251 C150,2.9849859 149.844766,1.6439396 149.544255,0.3304167 Z" id="path-13"></path>
        <rect id="path-15" x="0" y="0" width="264" height="280"></rect>
        <path d="M222.384814,182.806274 C217.011239,188.518122 211.648364,192.127879 211.831204,198 C212.148076,209.888877 255.439069,245.051165 216.999964,267 L16.0053198,267 C-22.4337677,245.051165 20.8572256,209.888877 21.1740982,198 C21.3569373,192.127879 15.9940628,188.518122 10.6204878,182.806274 C5.24691269,177.094426 -0.137362978,169.280486 0.00267373922,155 C0.944497502,125.971596 31.3716806,128.588232 31.2026676,109 C31.3716806,89.9992744 19.8139454,82.1607482 31.2026676,46 C42.8395963,9.53932757 72.9165934,0.768171773 116.002651,0.0159928999 L116.002651,0 C116.16951,0 116.336177,0.0049705256 116.502651,0.0076322645 C116.669125,0.0049705256 116.835791,0 117.002651,0 L117.002651,0.0159928999 C160.088708,0.768171773 190.165705,9.53932757 201.802634,46 C213.191356,82.1607482 201.633621,89.9992744 201.802634,109 C201.633621,128.588232 232.060804,125.971596 233.002628,155 C233.142665,169.280486 227.758389,177.094426 222.384814,182.806274 Z M182.884023,95.3249541 C161.364085,83.7373848 142.890027,67.1442914 130.845581,48.302359 C112.763849,73.9237118 76.5299076,78.5347548 51.2240944,94.679971 C51.0770557,95.4306015 51,96.2063021 51,97 L51,110 C51,116.018625 55.4308707,121.002364 61.2085808,121.867187 C62.9518066,142.114792 75.4692178,159.282984 93,167.610951 L93,186 L89,186 L89,186 C49.235498,186 17,218.235498 17,258 L17,267 L217,267 L217,258 C217,218.235498 184.764502,186 145,186 L141,186 L141,167.610951 C158.530782,159.282984 171.048193,142.114792 172.791419,121.867187 C178.569129,121.002364 183,116.018625 183,110 L183,97 C183,96.4315537 182.960475,95.8723389 182.884023,95.3249541 Z" id="path-17"></path>
        <path d="M222.384814,182.806274 C217.011239,188.518122 211.648364,192.127879 211.831204,198 C212.148076,209.888877 255.439069,245.051165 216.999964,267 L16.0053198,267 C-22.4337677,245.051165 20.8572256,209.888877 21.1740982,198 C21.3569373,192.127879 15.9940628,188.518122 10.6204878,182.806274 C5.24691269,177.094426 -0.137362978,169.280486 0.00267373922,155 C0.944497502,125.971596 31.3716806,128.588232 31.2026676,109 C31.3716806,89.9992744 19.8139454,82.1607482 31.2026676,46 C42.8395963,9.53932757 72.9165934,0.768171773 116.002651,0.0159928999 L116.002651,0 C116.16951,0 116.336177,0.0049705256 116.502651,0.0076322645 C116.669125,0.0049705256 116.835791,0 117.002651,0 L117.002651,0.0159928999 C160.088708,0.768171773 190.165705,9.53932757 201.802634,46 C213.191356,82.1607482 201.633621,89.9992744 201.802634,109 C201.633621,128.588232 232.060804,125.971596 233.002628,155 C233.142665,169.280486 227.758389,177.094426 222.384814,182.806274 Z M93,186 L89,186 L89,186 C49.235498,186 17,218.235498 17,258 L17,267 L217,267 L217,258 C217,218.235498 184.764502,186 145,186 L141,186 L141,140 L93,140 L93,186 Z" id="path-19"></path>
    </defs>
    <g id="Page-1" stroke="none" stroke-width="1" fill="none" fill-rule="evenodd">
        <g id="Group-2">
            <mask id="mask-2" fill="white">
                <use xlink:href="#path-1"></use>
            </mask>
            <g id="path-1"></g>
            <g id="Circle-Background" mask="url(#mask-2)">
                <g transform="translate(12.000000, 27.000000)" id="path-1">
                    <circle id="Oval" fill="#E6E6E6" fill-rule="nonzero" cx="120" cy="120" r="120"></circle>
                </g>
            </g>
            <mask id="mask-4" fill="white">
                <use xlink:href="#path-3"></use>
            </mask>
            <g id="path-1"></g>
            <g id="Color/Palette/Blue-01-Clipped" mask="url(#mask-4)">
                <g transform="translate(12.000000, 27.000000)" id="Color/Palette/Blue-01-Clipped">
                    <mask id="mask-6" fill="white">
                        <use xlink:href="#path-5"></use>
                    </mask>
                    <g id="path-3"></g>
                    <g id="Color/Palette/Blue-01" mask="url(#mask-6)" fill="#1E9587" fill-rule="nonzero">
                        <rect id="ðŸ–Color" x="0" y="0" width="240" height="240"></rect>
                    </g>
                </g>
            </g>
            <mask id="mask-8" fill="white">
                <use xlink:href="#path-7"></use>
            </mask>
            <g id="path-5"></g>
            <g id="Avataaar" mask="url(#mask-8)">
                <g transform="translate(0.000000, -13.000000)" id="Group">
                    <g id="Body" transform="translate(32.000000, 36.000000)">
                        <g id="path-5-link" fill="#D0C6AC" fill-rule="nonzero">
                            <path d="M124,144.610951 L124,163 L128,163 L128,163 C167.764502,163 200,195.235498 200,235 L200,244 L0,244 L0,235 C0,195.235498 32.235498,163 72,163 L72,163 L76,163 L76,144.610951 C58.7626345,136.422372 46.3722246,119.687011 44.3051388,99.8812385 C38.4803105,99.0577866 34,94.0521096 34,88 L34,74 C34,68.0540074 38.3245733,63.1180731 44,62.1659169 L44,56 L44,56 C44,25.072054 69.072054,0 100,0 L100,0 L100,0 C130.927946,0 156,25.072054 156,56 L156,62.1659169 C161.675427,63.1180731 166,68.0540074 166,74 L166,88 C166,94.0521096 161.51969,99.0577866 155.694861,99.8812385 C153.627775,119.687011 141.237365,136.422372 124,144.610951 Z" id="path-5"></path>
                        </g>
                        <g id="Skin/ðŸ‘¶ðŸ½-03-Brown-Clipped">
                            <mask id="mask-10" fill="white">
                                <use xlink:href="#path-9"></use>
                            </mask>
                            <g id="path-7"></g>
                            <g id="Skin/ðŸ‘¶ðŸ½-03-Brown" mask="url(#mask-10)">
                                <g transform="translate(-32.000000, 0.000000)" id="Color">
                                    <rect id="Rectangle" fill="#EDB98A" fill-rule="nonzero" x="0" y="0" width="264" height="244"></rect>
                                </g>
                            </g>
                        </g>
                        <g id="Neck-Shadow-Clipped">
                            <mask id="mask-12" fill="white">
                                <use xlink:href="#path-11"></use>
                            </mask>
                            <g id="path-9"></g>
                            <path d="M156,79 L156,102 C156,132.927946 130.927946,158 100,158 C69.072054,158 44,132.927946 44,102 L44,79 L44,94 C44,124.927946 69.072054,150 100,150 C130.927946,150 156,124.927946 156,94 L156,79 Z" id="Neck-Shadow" fill-opacity="0.100000001" fill="#000000" fill-rule="nonzero" mask="url(#mask-12)"></path>
                        </g>
                    </g>
                    <g id="Clothing/Shirt-Scoop-Neck" transform="translate(32.000000, 202.000000)">
                        <g id="Clothes" fill="#E6E6E6" fill-rule="nonzero">
                            <path d="M149.544255,0.3304167 C178.784209,9.4878872 200,36.7921987 200,69.051724 L200,78 L0,78 L0,69.051724 C0,36.3969699 21.7388273,8.8195914 51.5340368,0.0020332 C51.182234,1.4201865 51,2.8712315 51,4.3476251 C51,20.6289957 73.161905,33.8276544 100.5,33.8276544 C127.838095,33.8276544 150,20.6289957 150,4.3476251 C150,2.9849859 149.844766,1.6439396 149.544255,0.3304167 Z" id="react-path-146"></path>
                        </g>
                        <g id="Color/Palette/Gray-01-Clipped">
                            <mask id="mask-14" fill="white">
                                <use xlink:href="#path-13"></use>
                            </mask>
                            <g id="path-11"></g>
                            <g id="Color/Palette/Gray-01" mask="url(#mask-14)">
                                <g transform="translate(-32.000000, -32.000000)" id="ðŸ–Color">
                                    <rect id="Rectangle" fill="#25557C" fill-rule="nonzero" x="0" y="0" width="264" height="110"></rect>
                                </g>
                            </g>
                        </g>
                    </g>
                    <g id="Face" transform="translate(88.000000, 88.000000)" fill="#000000" fill-rule="nonzero">
                        <g id="Mouth/Default" transform="translate(30.000000, 61.000000)" fill-opacity="0.699999988">
                            <path d="M0,0 C0,7.7319865 6.2680135,14 14,14 L14,14 C21.7319865,14 28,7.7319865 28,0" id="Mouth"></path>
                        </g>
                        <g id="Nose/Default" transform="translate(32.000000, 42.000000)" fill-opacity="0.16">
                            <path d="M0,0 C0,4.418278 5.372583,8 12,8 L12,8 C18.627417,8 24,4.418278 24,0" id="Nose"></path>
                        </g>
                        <g id="Eyes/Default-ðŸ˜€" transform="translate(12.000000, 18.000000)" fill-opacity="0.599999964">
                            <circle id="Eye" cx="6" cy="6" r="6"></circle>
                            <circle id="Eye" cx="58" cy="6" r="6"></circle>
                        </g>
                        <g id="Eyebrow/Outline/Default" fill-opacity="0.599999964">
                            <g id="I-Browse">
                                <path d="M3.63024536,11.1585767 C7.54515501,5.64986673 18.2779197,2.56083721 27.5230268,4.83118046 C28.5957248,5.0946055 29.6788665,4.43856013 29.9422916,3.36586212 C30.2057166,2.2931641 29.5496712,1.21002236 28.4769732,0.94659732 C17.7403633,-1.69001789 5.31209962,1.88699832 0.369754639,8.84142326 C-0.270109626,9.74178291 -0.0589363917,10.9903811 0.84142326,11.6302454 C1.74178291,12.2701096 2.9903811,12.0589364 3.63024536,11.1585767 Z" id="Eyebrow"></path>
                                <path d="M61.6302454,11.1585767 C65.545155,5.64986673 76.2779197,2.56083721 85.5230268,4.83118046 C86.5957248,5.0946055 87.6788665,4.43856013 87.9422916,3.36586212 C88.2057166,2.2931641 87.5496712,1.21002236 86.4769732,0.94659732 C75.7403633,-1.69001789 63.3120996,1.88699832 58.3697546,8.84142326 C57.7298904,9.74178291 57.9410636,10.9903811 58.8414233,11.6302454 C59.7417829,12.2701096 60.9903811,12.0589364 61.6302454,11.1585767 Z" id="Eyebrow" transform="translate(73.000154, 6.039198) scale(-1, 1) translate(-73.000154, -6.039198) "></path>
                            </g>
                        </g>
                    </g>
                    <g id="Top/Long-Hair/Big-Hair-Clipped">
                        <mask id="mask-16" fill="white">
                            <use xlink:href="#path-15"></use>
                        </mask>
                        <g id="path-13"></g>
                        <g id="Top/Long-Hair/Big-Hair" mask="url(#mask-16)">
                            <g transform="translate(15.000000, 13.000000)" id="Group">
                                <g id="Hair">
                                    <g id="react-path-106-link" fill="#314756" fill-rule="nonzero">
                                        <path d="M222.384814,182.806274 C217.011239,188.518122 211.648364,192.127879 211.831204,198 C212.148076,209.888877 255.439069,245.051165 216.999964,267 L16.0053198,267 C-22.4337677,245.051165 20.8572256,209.888877 21.1740982,198 C21.3569373,192.127879 15.9940628,188.518122 10.6204878,182.806274 C5.24691269,177.094426 -0.137362978,169.280486 0.00267373922,155 C0.944497502,125.971596 31.3716806,128.588232 31.2026676,109 C31.3716806,89.9992744 19.8139454,82.1607482 31.2026676,46 C42.8395963,9.53932757 72.9165934,0.768171773 116.002651,0.0159928999 L116.002651,0 C116.16951,0 116.336177,0.0049705256 116.502651,0.0076322645 C116.669125,0.0049705256 116.835791,0 117.002651,0 L117.002651,0.0159928999 C160.088708,0.768171773 190.165705,9.53932757 201.802634,46 C213.191356,82.1607482 201.633621,89.9992744 201.802634,109 C201.633621,128.588232 232.060804,125.971596 233.002628,155 C233.142665,169.280486 227.758389,177.094426 222.384814,182.806274 Z M182.884023,95.3249541 C161.364085,83.7373848 142.890027,67.1442914 130.845581,48.302359 C112.763849,73.9237118 76.5299076,78.5347548 51.2240944,94.679971 C51.0770557,95.4306015 51,96.2063021 51,97 L51,110 C51,116.018625 55.4308707,121.002364 61.2085808,121.867187 C62.9518066,142.114792 75.4692178,159.282984 93,167.610951 L93,186 L89,186 L89,186 C49.235498,186 17,218.235498 17,258 L17,267 L217,267 L217,258 C217,218.235498 184.764502,186 145,186 L141,186 L141,167.610951 C158.530782,159.282984 171.048193,142.114792 172.791419,121.867187 C178.569129,121.002364 183,116.018625 183,110 L183,97 C183,96.4315537 182.960475,95.8723389 182.884023,95.3249541 Z" id="react-path-106"></path>
                                    </g>
                                    <g id="Skin/ðŸ‘¶ðŸ½-03-Brown-Clipped">
                                        <mask id="mask-18" fill="white">
                                            <use xlink:href="#path-17"></use>
                                        </mask>
                                        <g id="path-15"></g>
                                        <g id="Skin/ðŸ‘¶ðŸ½-03-Brown" mask="url(#mask-18)" fill="#4A312C" fill-rule="nonzero">
                                            <g id="Color">
                                                <rect id="Rectangle" x="0" y="0" width="264" height="280"></rect>
                                            </g>
                                        </g>
                                    </g>
                                </g>
                                <g id="Shadow-Mask-Clipped">
                                    <mask id="mask-20" fill="white">
                                        <use xlink:href="#path-19"></use>
                                    </mask>
                                    <g id="path-17"></g>
                                    <path d="M30.0988695,115.056827 C27.7250732,118.08281 24.5296181,122.528485 24.3618393,122.19381 C26.2345006,119.810609 27.3747977,117.011661 27.3409475,113.436088 C27.517612,95.334874 15.4366324,87.8674306 27.3409475,53.4185647 C28.0096512,51.5090274 29.1070085,49.7044671 30.585889,48.0048838 C20.2433352,82.4586863 31.3685109,90.3556196 31.2026676,109 C31.2224682,111.294844 30.8223327,113.284923 30.0988695,115.056827 Z M202.419413,48.0048838 C203.898293,49.7044671 204.995651,51.5090274 205.664354,53.4185647 C215.822041,82.8130155 208.516445,92.5627534 206.263744,106.036479 C205.964379,106.841192 206.195125,107.789747 205.880216,108.603009 C175.207016,98.1454461 147.589972,78.5596292 131.494917,55.6119279 C108.710969,85.0357527 58.3544031,85.3732378 33.6737341,110.936101 C34.0607045,110.391798 34.4280855,109.884956 34.7584999,109.446288 C57.2940449,79.527377 108.24688,80.3241416 130.845581,48.302359 C146.243536,72.3904102 172.664446,92.9495135 202.009146,103.926748 C202.310417,103.073073 202.089664,102.077381 202.376063,101.232679 C204.483829,87.4002546 211.215481,77.3069293 202.419413,48.0048838 Z" id="Shadow-Mask" fill-opacity="0.16" fill="#000000" fill-rule="nonzero" mask="url(#mask-20)"></path>
                                </g>
                                <path d="M34.7584999,109.446288 C57.2940449,79.527377 108.24688,80.3241416 130.845581,48.302359 C146.243536,72.3904102 172.664446,92.949514 202.009146,103.926748 C202.310417,103.073073 202.089664,102.077381 202.376063,101.232679 C204.531197,87.089398 211.520377,76.8551619 201.802634,46 C190.165705,9.5393276 160.088708,0.7681718 117.002651,0.0159929 C116.336177,0.0049705 116.16951,0.0024268 116.002651,0 C72.9165934,0.7681718 42.8395963,9.5393276 31.2026676,46 C19.8139454,82.1607482 31.3716806,89.999274 31.2026676,109 C31.2350518,112.753256 30.1441426,115.691293 28.3525888,118.192923 C28.5361111,118.59459 32.5061717,112.436551 34.7584999,109.446288 Z" id="Light" fill-opacity="0.1" fill="#FFFFFF" fill-rule="nonzero"></path>
                            </g>
                        </g>
                    </g>
                </g>
            </g>
        </g>
    </g>
</svg>