<?xml version="1.0" encoding="UTF-8"?>
<svg width="264px" height="264px" viewBox="0 0 264 264" version="1.1" xmlns="http://www.w3.org/2000/svg" xmlns:xlink="http://www.w3.org/1999/xlink">
    <title>Group 2</title>
    <defs>
        <rect id="path-1" x="2.84217094e-14" y="0" width="264" height="261"></rect>
        <circle id="path-3" cx="120" cy="120" r="120"></circle>
        <path d="M12,141 C12,207.27417 65.72583,261 132,261 C198.27417,261 252,207.27417 252,141 L264,141 L264,-19 L0,-19 L0,141 L12,141 Z" id="path-5"></path>
        <path d="M124,144.610951 L124,163 L128,163 L128,163 C167.764502,163 200,195.235498 200,235 L200,244 L0,244 L0,235 C0,195.235498 32.235498,163 72,163 L72,163 L76,163 L76,144.610951 C58.7626345,136.422372 46.3722246,119.687011 44.3051388,99.8812385 C38.4803105,99.0577866 34,94.0521096 34,88 L34,74 C34,68.0540074 38.3245733,63.1180731 44,62.1659169 L44,56 L44,56 C44,25.072054 69.072054,0 100,0 L100,0 L100,0 C130.927946,0 156,25.072054 156,56 L156,62.1659169 C161.675427,63.1180731 166,68.0540074 166,74 L166,88 C166,94.0521096 161.51969,99.0577866 155.694861,99.8812385 C153.627775,119.687011 141.237365,136.422372 124,144.610951 Z" id="path-7"></path>
        <path d="M124,144.610951 L124,163 L128,163 L128,163 C167.764502,163 200,195.235498 200,235 L200,244 L0,244 L0,235 C0,195.235498 32.235498,163 72,163 L72,163 L76,163 L76,144.610951 C58.7626345,136.422372 46.3722246,119.687011 44.3051388,99.8812385 C38.4803105,99.0577866 34,94.0521096 34,88 L34,74 C34,68.0540074 38.3245733,63.1180731 44,62.1659169 L44,56 L44,56 C44,25.072054 69.072054,0 100,0 L100,0 L100,0 C130.927946,0 156,25.072054 156,56 L156,62.1659169 C161.675427,63.1180731 166,68.0540074 166,74 L166,88 C166,94.0521096 161.51969,99.0577866 155.694861,99.8812385 C153.627775,119.687011 141.237365,136.422372 124,144.610951 Z" id="path-9"></path>
        <path d="M76,0.0708856 C58.0813006,2.075938 44.2798424,7.5518341 44.004203,21.6449676 C18.1464329,32.5680933 0,58.1646257 0,87.999485 L0,87.999485 L0,97 L200,97 L200,87.999485 C200,58.1646257 181.853567,32.5680933 155.995797,21.6449832 C155.720158,7.5518341 141.918699,2.075938 124,0.0708856 L124,19 L124,19 C124,32.254834 113.254834,43 100,43 L100,43 C86.745166,43 76,32.254834 76,19 L76,0.0708856 Z" id="path-11"></path>
        <path d="M76,0.0708856 C58.0813006,2.075938 44.2798424,7.5518341 44.004203,21.6449676 C18.1464329,32.5680933 0,58.1646257 0,87.999485 L0,87.999485 L0,97 L200,97 L200,87.999485 C200,58.1646257 181.853567,32.5680933 155.995797,21.6449832 C155.720158,7.5518341 141.918699,2.075938 124,0.0708856 L124,19 L124,19 C124,32.254834 113.254834,43 100,43 L100,43 C86.745166,43 76,32.254834 76,19 L76,0.0708856 Z" id="path-13"></path>
        <path d="M76,0.0708856 C58.0813006,2.075938 44.2798424,7.5518341 44.004203,21.6449676 C18.1464329,32.5680933 0,58.1646257 0,87.999485 L0,87.999485 L0,97 L200,97 L200,87.999485 C200,58.1646257 181.853567,32.5680933 155.995797,21.6449832 C155.720158,7.5518341 141.918699,2.075938 124,0.0708856 L124,19 L124,19 C124,32.254834 113.254834,43 100,43 L100,43 C86.745166,43 76,32.254834 76,19 L76,0.0708856 Z" id="path-15"></path>
        <rect id="path-17" x="0" y="0" width="264" height="280"></rect>
        <path d="M41.1802189,51.7372986 C43.3631845,50.1045334 56.4065113,49.4786511 58.757829,48.0894494 C59.4916461,47.6553857 60.0610723,47.215719 60.4997781,46.7800074 C60.938814,47.215719 61.5085703,47.6553857 62.2423874,48.0894494 C64.593375,49.4786511 77.636702,50.1045334 79.819667,51.7372986 C82.030032,53.3908276 83.643571,57.1846831 83.466966,60.15095 C83.255041,63.7101408 79.361486,72.2028927 69.6723269,73.1811016 C67.5576925,70.8281927 64.2368647,69.3104528 60.4997781,69.3104528 C56.7633517,69.3104528 53.4421938,70.8281927 51.3275594,73.1811016 C41.6387308,72.2028927 37.7451757,63.7101408 37.5332501,60.15095 C37.3566455,57.1846831 38.9701849,53.3908276 41.1802189,51.7372986 M120.86259,29.9853335 C120.47439,24.0303878 119.277769,18.1519058 118.233986,12.2862777 C117.952739,10.7072349 116.423706,0 115.734783,0 C115.502391,9.1094058 114.701893,18.0803858 113.669664,27.1393651 C113.361018,29.8475668 113.037848,32.5564277 112.825262,35.2741874 C112.653609,37.4695546 112.959614,40.1220564 112.427819,42.2455739 C111.749129,44.9524573 108.348087,47.4783984 105.702978,48.410795 C99.102915,50.7373371 93.597802,41.1077689 87.960977,38.2911336 C80.643272,34.6347152 68.0637391,33.7639895 60.5816434,38.5297918 C52.9361472,33.7639895 40.356614,34.6347152 33.0389092,38.2911336 C27.4024147,41.1077689 21.8969708,50.7373371 15.2972383,48.410795 C12.6521296,47.4783984 9.2504268,44.9524573 8.572397,42.2455739 C8.0402723,40.1220564 8.346277,37.4695546 8.174954,35.2741874 C7.9623682,32.5564277 7.6388681,29.8475668 7.3302226,27.1393651 C6.2983232,18.0803858 5.4974953,9.1094058 5.2654335,0 C4.5761802,0 3.0468169,10.7072349 2.7658999,12.2862777 C1.7221169,18.1519058 0.5258266,24.0303878 0.1376265,29.9853335 C-0.261467,36.1047422 0.2148704,42.1674622 1.4695887,48.1632765 C2.0687242,51.0277016 2.7685407,53.8756475 3.518863,56.7041478 C4.352701,59.8467429 3.198994,65.9661516 3.5723395,69.1921317 C4.2787581,75.29572 7.1542781,87.199679 10.3833375,92.45096 C11.9440605,94.989096 13.7734867,96.573742 15.816489,98.619148 C17.7825775,100.58809 18.6038717,103.640049 20.7260985,105.73687 C24.6820428,109.645092 30.4456266,111.971304 36.3656788,112.543134 C41.6773527,117.050212 50.505605,120 60.4997781,120 C70.4946114,120 79.322534,117.050212 84.634538,112.543134 C90.55393,111.971304 96.317843,109.645092 100.274118,105.73687 C102.396015,103.640049 103.217309,100.58809 105.183727,98.619148 C107.2264,96.573742 109.055826,94.989096 110.616879,92.45096 C113.845608,87.199679 116.721458,75.29572 117.427547,69.1921317 C117.800892,65.9661516 116.647185,59.8467429 117.481353,56.7041478 C118.231676,53.8756475 118.931162,51.0277016 119.530628,48.1632765 C120.784686,42.1674622 121.261353,36.1047422 120.86259,29.9853335 Z" id="path-19"></path>
        <path d="M113.831676,54.928751 C115.588868,55.9173665 116.980206,65.8279256 117.047535,69.6176558 C117.08965,71.9562115 117.127358,80.8740101 114.654049,80.1031293 C113.901013,79.868423 112.751682,75.1472484 112.58821,72.3840965 C112.424737,69.6209446 110.855069,60.2200034 108.446757,55.8947261 C107.896491,54.9063366 106.320781,53.1708928 107.001547,52.3348066 C107.846064,51.2980597 108.666198,51.8995898 109.697184,52.3146953 C110.8124,52.7641482 113.6344,54.8180261 113.831676,54.928751 Z M114.636742,51.9565876 C113.890663,52.9188016 108.795829,50.217693 106.671174,49.0439722 C88.825581,39.1840558 85.361562,36.0486831 57.245707,36.4578453 C29.129853,36.8670074 9.8674779,50.0400225 8.7839818,51.3874406 C8.0301584,52.3248831 7.0677773,54.8279219 6.2764086,61.8005402 C5.48504,68.7731584 6.4952061,81.277789 3.6304859,81.2626318 C1.1915094,81.249702 0.6608912,57.4770353 1.7137309,48.0463924 C1.8753757,46.5984852 2.4983655,44.0083957 2.0474223,42.7058802 C1.6532986,41.5682485 -0.2746232,41.5705662 0.0331217,39.6750651 C0.3829065,37.5173393 2.5584694,38.5890837 3.5060085,37.5574014 C5.3005851,35.602966 2.5321945,35.1404306 2.0730403,33.4306721 C1.3905494,30.8892108 3.3628102,30.2336489 5.1396512,29.4310821 C7.1060001,28.5437559 6.8504766,29.3231462 8.4463492,27.5849138 C6.3147968,26.0224912 5.543628,23.8939014 8.4624425,22.7519655 C9.7019616,22.2669159 12.9268789,22.9089031 13.8980654,22.1801698 C14.1512899,21.9901231 14.251463,20.9008308 14.4074703,20.6780059 C15.9583471,18.4593592 15.5757186,16.8532324 15.4183976,14.3624282 C15.2889936,12.3242265 15.3064008,10.4532263 17.7466834,10.2496048 C19.3750712,10.1138571 20.6993269,11.4441843 22.1582415,11.835866 C23.7767762,12.2705896 23.1688403,12.5877757 24.4369334,11.7150174 C26.6630755,10.1817309 25.1479982,7.1942888 26.913344,5.4120212 C29.335891,2.9662454 30.923881,6.5513084 32.868882,6.8218105 C37.09126,7.4101607 35.736132,3.1218586 38.235861,1.5504965 C41.223647,-0.3261323 41.512672,3.8012592 43.378847,3.948264 C44.996068,4.0750722 47.907657,0.9545311 49.317306,0.3731338 C53.499944,-1.3528482 55.572378,3.5039387 59.554013,2.8844657 C62.443268,2.434843 63.223305,2.067662 65.830761,3.7115333 C68.361692,5.3070651 68.96306,4.1664535 71.828996,4.1436082 C73.853806,4.128378 75.093982,5.8202575 76.787729,5.9967295 C77.632467,6.085131 78.441078,5.2050888 79.347562,5.2603811 C82.58496,5.4567186 82.789576,9.6430444 85.361562,10.7955753 C87.711524,11.8487786 90.474332,10.3691289 92.806559,10.0953159 C98.497048,9.4275036 94.60015,14.7425217 94.760755,17.914713 C96.994451,18.4358517 99.261648,16.3509661 101.485163,16.7347015 C104.986623,17.3392753 103.664995,20.9680424 102.853429,23.4144804 C105.279589,23.3707762 111.612828,20.6776748 113.184725,24.1220237 C113.995306,25.8980006 112.106797,28.2689496 112.13767,30.0743937 C112.181023,32.615855 114.048513,34.7186196 114.709327,37.1240021 C115.601032,40.3710203 116.871834,49.0740038 114.636742,51.9565876 Z" id="path-21"></path>
    </defs>
    <g id="Page-1" stroke="none" stroke-width="1" fill="none" fill-rule="evenodd">
        <g id="Group-2" transform="translate(-0.000000, 3.000000)">
            <mask id="mask-2" fill="white">
                <use xlink:href="#path-1"></use>
            </mask>
            <g id="Mask"></g>
            <g id="Circle-Background" mask="url(#mask-2)" fill="#E6E6E6" fill-rule="nonzero">
                <g transform="translate(12.000000, 21.000000)" id="path-1">
                    <circle cx="120" cy="120" r="120"></circle>
                </g>
            </g>
            <g id="Color/Palette/Blue-01-Clipped" mask="url(#mask-2)">
                <g transform="translate(12.000000, 21.000000)">
                    <mask id="mask-4" fill="white">
                        <use xlink:href="#path-3"></use>
                    </mask>
                    <g id="path-1" stroke="none" fill="none"></g>
                    <g id="Color/Palette/Blue-01" stroke="none" stroke-width="1" fill="none" fill-rule="evenodd" mask="url(#mask-4)">
                        <rect id="ðŸ–Color" fill="#1E9587" fill-rule="nonzero" x="0" y="0" width="240" height="240"></rect>
                    </g>
                </g>
            </g>
            <mask id="mask-6" fill="white">
                <use xlink:href="#path-5"></use>
            </mask>
            <g id="path-3"></g>
            <g id="Avataaar" mask="url(#mask-6)">
                <g transform="translate(0.000000, -19.000000)">
                    <g id="Body" transform="translate(32.000000, 36.000000)">
                        <g id="path-5-link" fill="#D0C6AC" fill-rule="nonzero">
                            <path d="M124,144.610951 L124,163 L128,163 L128,163 C167.764502,163 200,195.235498 200,235 L200,244 L0,244 L0,235 C0,195.235498 32.235498,163 72,163 L72,163 L76,163 L76,144.610951 C58.7626345,136.422372 46.3722246,119.687011 44.3051388,99.8812385 C38.4803105,99.0577866 34,94.0521096 34,88 L34,74 C34,68.0540074 38.3245733,63.1180731 44,62.1659169 L44,56 L44,56 C44,25.072054 69.072054,0 100,0 L100,0 L100,0 C130.927946,0 156,25.072054 156,56 L156,62.1659169 C161.675427,63.1180731 166,68.0540074 166,74 L166,88 C166,94.0521096 161.51969,99.0577866 155.694861,99.8812385 C153.627775,119.687011 141.237365,136.422372 124,144.610951 Z" id="path-5"></path>
                        </g>
                        <g id="Skin/ðŸ‘¶ðŸ½-03-Brown-Clipped">
                            <mask id="mask-8" fill="white">
                                <use xlink:href="#path-7"></use>
                            </mask>
                            <g id="path-5"></g>
                            <g id="Skin/ðŸ‘¶ðŸ½-03-Brown" mask="url(#mask-8)">
                                <g transform="translate(-32.000000, 0.000000)" id="Color">
                                    <rect id="Rectangle" fill="#AE5D29" fill-rule="nonzero" x="0" y="0" width="264" height="244"></rect>
                                </g>
                            </g>
                        </g>
                        <g id="Neck-Shadow-Clipped">
                            <mask id="mask-10" fill="white">
                                <use xlink:href="#path-9"></use>
                            </mask>
                            <g id="path-5"></g>
                            <path d="M156,79 L156,102 C156,132.927946 130.927946,158 100,158 C69.072054,158 44,132.927946 44,102 L44,79 L44,94 C44,124.927946 69.072054,150 100,150 C130.927946,150 156,124.927946 156,94 L156,79 Z" id="Neck-Shadow" fill-opacity="0.100000001" fill="#000000" fill-rule="nonzero" mask="url(#mask-10)"></path>
                        </g>
                    </g>
                    <g id="Clothing/Hoodie" transform="translate(32.000000, 183.000000)">
                        <g id="Hoodie" fill="#B7C1DB">
                            <path d="M76,0.0708856 C58.0813006,2.075938 44.2798424,7.5518341 44.004203,21.6449676 C18.1464329,32.5680933 0,58.1646257 0,87.999485 L0,87.999485 L0,97 L200,97 L200,87.999485 C200,58.1646257 181.853567,32.5680933 155.995797,21.6449832 C155.720158,7.5518341 141.918699,2.075938 124,0.0708856 L124,19 L124,19 C124,32.254834 113.254834,43 100,43 L100,43 C86.745166,43 76,32.254834 76,19 L76,0.0708856 Z" id="react-path-434"></path>
                        </g>
                        <g id="Color/Palette/Gray-01-Clipped">
                            <mask id="mask-12" fill="white">
                                <use xlink:href="#path-11"></use>
                            </mask>
                            <g id="react-path-434"></g>
                            <g id="Color/Palette/Gray-01" mask="url(#mask-12)" fill="#FF5C5C">
                                <g transform="translate(-32.000000, -13.000000)" id="ðŸ–Color">
                                    <rect x="0" y="0" width="264" height="110"></rect>
                                </g>
                            </g>
                        </g>
                        <g id="Straps-Clipped">
                            <mask id="mask-14" fill="white">
                                <use xlink:href="#path-13"></use>
                            </mask>
                            <g id="react-path-434"></g>
                            <path d="M70,48.7390531 L70,97 L63,97 L63,45.1502625 C65.2037542,46.4600576 67.5467694,47.6607878 70,48.7390531 Z M137,45.1502625 L137,85.5 C137,87.432997 135.432997,89 133.5,89 C131.567003,89 130,87.432997 130,85.5 L130,48.7390531 C132.453231,47.6607878 134.796246,46.4600576 137,45.1502625 Z" id="Straps" fill="#F4F4F4" mask="url(#mask-14)"></path>
                        </g>
                        <g id="Shadow-Clipped">
                            <mask id="mask-16" fill="white">
                                <use xlink:href="#path-15"></use>
                            </mask>
                            <g id="react-path-434"></g>
                            <path d="M58.9601329,-0.2756463 C43.9093095,2.5711782 33.5,8.2428847 33.5,19.3076923 C33.5,39.0200095 66.5376807,55 100,55 C133.462319,55 166.5,39.0200095 166.5,19.3076923 C166.5,8.2428847 156.09069,2.5711782 141.039867,-0.2756463 C150.124921,3.0744598 156,8.7060546 156,18.0769231 C156,38.4689754 128.178795,55 100,55 C71.821205,55 44,38.4689754 44,18.0769231 C44,8.7060546 49.8750795,3.0744598 58.9601329,-0.2756463 Z" id="Shadow" fill-opacity="0.16" fill="#000000" mask="url(#mask-16)"></path>
                        </g>
                    </g>
                    <g id="Face" transform="translate(87.000000, 84.000000)">
                        <g id="Mouth/Default" transform="translate(31.000000, 65.000000)" fill="#000000" fill-opacity="0.699999988" fill-rule="nonzero">
                            <path d="M0,0 C0,7.7319865 6.2680135,14 14,14 L14,14 C21.7319865,14 28,7.7319865 28,0" id="Mouth"></path>
                        </g>
                        <g id="Nose/Default" transform="translate(33.000000, 46.000000)" fill="#000000" fill-opacity="0.16" fill-rule="nonzero">
                            <path d="M0,0 C0,4.418278 5.372583,8 12,8 L12,8 C18.627417,8 24,4.418278 24,0" id="Nose"></path>
                        </g>
                        <g id="Eyes/Happy-ðŸ˜" transform="translate(5.000000, 22.000000)" fill="#000000" fill-opacity="0.599999964" fill-rule="nonzero">
                            <path d="M0.1601674,6.4473116 C2.006676,2.648508 6.1644225,0 10.9975803,0 C15.8136766,0 19.9591217,2.629842 21.8153518,6.4071242 C22.3667605,7.5291977 21.5821037,8.4474817 20.790607,7.7670228 C18.3395063,5.6597833 14.8587163,4.3437884 10.9975803,4.3437884 C7.2572061,4.3437884 3.8737584,5.5787519 1.4375392,7.5716412 C0.5467928,8.3002944 -0.3798988,7.5583844 0.1601674,6.4473116 Z" id="Squint"></path>
                            <path d="M58.1601674,6.4473116 C60.006676,2.648508 64.1644225,0 68.9975803,0 C73.8136766,0 77.9591217,2.629842 79.8153518,6.4071242 C80.3667605,7.5291977 79.5821037,8.4474817 78.790607,7.7670228 C76.3395063,5.6597833 72.8587163,4.3437884 68.9975803,4.3437884 C65.2572061,4.3437884 61.8737584,5.5787519 59.4375392,7.5716412 C58.5467928,8.3002944 57.6201012,7.5583844 58.1601674,6.4473116 Z" id="Squint"></path>
                        </g>
                        <g id="Eyebrow/Outline/Up-Down" fill="#000000" fill-opacity="0.599999964" fill-rule="nonzero">
                            <path d="M4.5914402,12.1619718 C9.0874642,5.83556966 18.6031809,2.65350252 28.3473715,5.79575991 C29.3986323,6.13476518 30.5256656,5.55736801 30.8646708,4.50610724 C31.2036761,3.45484647 30.6262789,2.32781316 29.5750182,1.98880789 C18.1665516,-1.69013683 6.8358054,2.09887835 1.3309495,9.8448183 C0.6910852,10.7451779 0.9022584,11.9937761 1.8026181,12.6336404 C2.7029777,13.2735046 3.9515759,13.0623314 4.5914402,12.1619718 Z" id="Eyebrow"></path>
                            <path d="M62.6376409,19.1577995 C66.5525505,13.6490895 77.2853152,10.56006 86.5304223,12.8304032 C87.6031203,13.0938282 88.6862621,12.4377829 88.9496871,11.3650849 C89.2131124,10.2923868 88.5570668,9.2092451 87.4843688,8.9458201 C76.7477588,6.30920485 64.3194951,9.8862211 59.3771502,16.840646 C58.7372859,17.7410057 58.9484591,18.9896038 59.8488188,19.6294681 C60.7491784,20.2693324 61.9977766,20.0581591 62.6376409,19.1577995 Z" id="Eyebrow" transform="translate(74.007549, 14.038421) scale(-1, 1) translate(-74.007549, -14.038421) "></path>
                        </g>
                    </g>
                    <g id="Top/Short-Hair/Dreads-01-Clipped">
                        <mask id="mask-18" fill="white">
                            <use xlink:href="#path-17"></use>
                        </mask>
                        <g id="react-path-428"></g>
                        <g id="Top/Short-Hair/Dreads-01" mask="url(#mask-18)">
                            <g transform="translate(67.000000, 19.000000)" id="Group">
                                <g id="Facial-Hair/Beard-Magestic" transform="translate(5.000000, 79.000000)">
                                    <g id="Glorious-Beard" fill="#5E7AA9">
                                        <path d="M41.1802189,51.7372986 C43.3631845,50.1045334 56.4065113,49.4786511 58.757829,48.0894494 C59.4916461,47.6553857 60.0610723,47.215719 60.4997781,46.7800074 C60.938814,47.215719 61.5085703,47.6553857 62.2423874,48.0894494 C64.593375,49.4786511 77.636702,50.1045334 79.819667,51.7372986 C82.030032,53.3908276 83.643571,57.1846831 83.466966,60.15095 C83.255041,63.7101408 79.361486,72.2028927 69.6723269,73.1811016 C67.5576925,70.8281927 64.2368647,69.3104528 60.4997781,69.3104528 C56.7633517,69.3104528 53.4421938,70.8281927 51.3275594,73.1811016 C41.6387308,72.2028927 37.7451757,63.7101408 37.5332501,60.15095 C37.3566455,57.1846831 38.9701849,53.3908276 41.1802189,51.7372986 M120.86259,29.9853335 C120.47439,24.0303878 119.277769,18.1519058 118.233986,12.2862777 C117.952739,10.7072349 116.423706,0 115.734783,0 C115.502391,9.1094058 114.701893,18.0803858 113.669664,27.1393651 C113.361018,29.8475668 113.037848,32.5564277 112.825262,35.2741874 C112.653609,37.4695546 112.959614,40.1220564 112.427819,42.2455739 C111.749129,44.9524573 108.348087,47.4783984 105.702978,48.410795 C99.102915,50.7373371 93.597802,41.1077689 87.960977,38.2911336 C80.643272,34.6347152 68.0637391,33.7639895 60.5816434,38.5297918 C52.9361472,33.7639895 40.356614,34.6347152 33.0389092,38.2911336 C27.4024147,41.1077689 21.8969708,50.7373371 15.2972383,48.410795 C12.6521296,47.4783984 9.2504268,44.9524573 8.572397,42.2455739 C8.0402723,40.1220564 8.346277,37.4695546 8.174954,35.2741874 C7.9623682,32.5564277 7.6388681,29.8475668 7.3302226,27.1393651 C6.2983232,18.0803858 5.4974953,9.1094058 5.2654335,0 C4.5761802,0 3.0468169,10.7072349 2.7658999,12.2862777 C1.7221169,18.1519058 0.5258266,24.0303878 0.1376265,29.9853335 C-0.261467,36.1047422 0.2148704,42.1674622 1.4695887,48.1632765 C2.0687242,51.0277016 2.7685407,53.8756475 3.518863,56.7041478 C4.352701,59.8467429 3.198994,65.9661516 3.5723395,69.1921317 C4.2787581,75.29572 7.1542781,87.199679 10.3833375,92.45096 C11.9440605,94.989096 13.7734867,96.573742 15.816489,98.619148 C17.7825775,100.58809 18.6038717,103.640049 20.7260985,105.73687 C24.6820428,109.645092 30.4456266,111.971304 36.3656788,112.543134 C41.6773527,117.050212 50.505605,120 60.4997781,120 C70.4946114,120 79.322534,117.050212 84.634538,112.543134 C90.55393,111.971304 96.317843,109.645092 100.274118,105.73687 C102.396015,103.640049 103.217309,100.58809 105.183727,98.619148 C107.2264,96.573742 109.055826,94.989096 110.616879,92.45096 C113.845608,87.199679 116.721458,75.29572 117.427547,69.1921317 C117.800892,65.9661516 116.647185,59.8467429 117.481353,56.7041478 C118.231676,53.8756475 118.931162,51.0277016 119.530628,48.1632765 C120.784686,42.1674622 121.261353,36.1047422 120.86259,29.9853335 Z" id="react-path-432"></path>
                                    </g>
                                    <g id="Color/Hair/Brown-Clipped">
                                        <mask id="mask-20" fill="white">
                                            <use xlink:href="#path-19"></use>
                                        </mask>
                                        <g id="react-path-432"></g>
                                        <g id="Color/Hair/Brown" mask="url(#mask-20)">
                                            <g transform="translate(-56.000000, -26.000000)" id="Color">
                                                <rect id="Rectangle" fill="#2C1B18" fill-rule="nonzero" x="0" y="0" width="264" height="244"></rect>
                                            </g>
                                        </g>
                                    </g>
                                </g>
                                <g id="Hair" transform="translate(5.000000, 0.000000)">
                                    <g id="Dreads-With-Cut" fill="#2E3257" fill-rule="nonzero">
                                        <path d="M113.831676,54.928751 C115.588868,55.9173665 116.980206,65.8279256 117.047535,69.6176558 C117.08965,71.9562115 117.127358,80.8740101 114.654049,80.1031293 C113.901013,79.868423 112.751682,75.1472484 112.58821,72.3840965 C112.424737,69.6209446 110.855069,60.2200034 108.446757,55.8947261 C107.896491,54.9063366 106.320781,53.1708928 107.001547,52.3348066 C107.846064,51.2980597 108.666198,51.8995898 109.697184,52.3146953 C110.8124,52.7641482 113.6344,54.8180261 113.831676,54.928751 Z M114.636742,51.9565876 C113.890663,52.9188016 108.795829,50.217693 106.671174,49.0439722 C88.825581,39.1840558 85.361562,36.0486831 57.245707,36.4578453 C29.129853,36.8670074 9.8674779,50.0400225 8.7839818,51.3874406 C8.0301584,52.3248831 7.0677773,54.8279219 6.2764086,61.8005402 C5.48504,68.7731584 6.4952061,81.277789 3.6304859,81.2626318 C1.1915094,81.249702 0.6608912,57.4770353 1.7137309,48.0463924 C1.8753757,46.5984852 2.4983655,44.0083957 2.0474223,42.7058802 C1.6532986,41.5682485 -0.2746232,41.5705662 0.0331217,39.6750651 C0.3829065,37.5173393 2.5584694,38.5890837 3.5060085,37.5574014 C5.3005851,35.602966 2.5321945,35.1404306 2.0730403,33.4306721 C1.3905494,30.8892108 3.3628102,30.2336489 5.1396512,29.4310821 C7.1060001,28.5437559 6.8504766,29.3231462 8.4463492,27.5849138 C6.3147968,26.0224912 5.543628,23.8939014 8.4624425,22.7519655 C9.7019616,22.2669159 12.9268789,22.9089031 13.8980654,22.1801698 C14.1512899,21.9901231 14.251463,20.9008308 14.4074703,20.6780059 C15.9583471,18.4593592 15.5757186,16.8532324 15.4183976,14.3624282 C15.2889936,12.3242265 15.3064008,10.4532263 17.7466834,10.2496048 C19.3750712,10.1138571 20.6993269,11.4441843 22.1582415,11.835866 C23.7767762,12.2705896 23.1688403,12.5877757 24.4369334,11.7150174 C26.6630755,10.1817309 25.1479982,7.1942888 26.913344,5.4120212 C29.335891,2.9662454 30.923881,6.5513084 32.868882,6.8218105 C37.09126,7.4101607 35.736132,3.1218586 38.235861,1.5504965 C41.223647,-0.3261323 41.512672,3.8012592 43.378847,3.948264 C44.996068,4.0750722 47.907657,0.9545311 49.317306,0.3731338 C53.499944,-1.3528482 55.572378,3.5039387 59.554013,2.8844657 C62.443268,2.434843 63.223305,2.067662 65.830761,3.7115333 C68.361692,5.3070651 68.96306,4.1664535 71.828996,4.1436082 C73.853806,4.128378 75.093982,5.8202575 76.787729,5.9967295 C77.632467,6.085131 78.441078,5.2050888 79.347562,5.2603811 C82.58496,5.4567186 82.789576,9.6430444 85.361562,10.7955753 C87.711524,11.8487786 90.474332,10.3691289 92.806559,10.0953159 C98.497048,9.4275036 94.60015,14.7425217 94.760755,17.914713 C96.994451,18.4358517 99.261648,16.3509661 101.485163,16.7347015 C104.986623,17.3392753 103.664995,20.9680424 102.853429,23.4144804 C105.279589,23.3707762 111.612828,20.6776748 113.184725,24.1220237 C113.995306,25.8980006 112.106797,28.2689496 112.13767,30.0743937 C112.181023,32.615855 114.048513,34.7186196 114.709327,37.1240021 C115.601032,40.3710203 116.871834,49.0740038 114.636742,51.9565876 Z" id="react-path-430"></path>
                                    </g>
                                    <g id="Skin/ðŸ‘¶ðŸ½-03-Brown-Clipped">
                                        <mask id="mask-22" fill="white">
                                            <use xlink:href="#path-21"></use>
                                        </mask>
                                        <g id="react-path-430"></g>
                                        <g id="Skin/ðŸ‘¶ðŸ½-03-Brown" mask="url(#mask-22)">
                                            <g transform="translate(-72.000000, -19.000000)" id="Color">
                                                <rect id="Rectangle" fill="#2C1B18" fill-rule="nonzero" x="0" y="0" width="264" height="280"></rect>
                                            </g>
                                        </g>
                                    </g>
                                </g>
                                <g id="Top/_Resources/Prescription-02" transform="translate(0.000000, 73.000000)" fill="#252C2F" fill-rule="nonzero">
                                    <g id="Wayfarers">
                                        <path d="M34,41 L31.2421498,41 C17.3147125,41 9,33.3359286 9,20.5 C9,10.127 10.8170058,0 32.5299306,0 L35.4700694,0 C57.1829942,0 59,10.127 59,20.5 C59,32.5686429 48.7212748,41 34,41 Z M32.3853606,6 C13,6 13,12.8410159 13,21.5015498 C13,28.5719428 16.116254,37 30.9709365,37 L34,37 C46.3649085,37 55,30.6270373 55,21.5015498 C55,12.8410159 55,6 35.6146394,6 L32.3853606,6 Z" id="Left"></path>
                                        <path d="M96,41 L93.2421498,41 C79.3147125,41 71,33.3359286 71,20.5 C71,10.127 72.8170058,0 94.5299306,0 L97.4700694,0 C119.182994,0 121,10.127 121,20.5 C121,32.5686429 110.721275,41 96,41 Z M94.3853606,6 C75,6 75,12.8410159 75,21.5015498 C75,28.5719428 78.1194833,37 92.9709365,37 L96,37 C108.364909,37 117,30.6270373 117,21.5015498 C117,12.8410159 117,6 97.6146394,6 L94.3853606,6 Z" id="Right"></path>
                                        <path d="M2.95454545,5.77156439 C3.64590909,5.09629136 11.2095455,0 32.5,0 C50.3513636,0 54.1302273,1.85267217 59.8502273,4.6518809 L60.2689233,4.85850899 C60.6666014,4.99901896 62.7002447,5.68982981 65.0790606,5.76579519 C67.2462948,5.67278567 69.1000195,5.08540191 69.641698,4.89719767 C76.1703915,1.7220864 82.5610971,0 97.5,0 C118.790455,0 126.354091,5.09629136 127.045455,5.77156439 C128.679318,5.77156439 130,7.06150904 130,8.65734659 L130,11.5431288 C130,13.1389663 128.679318,14.428911 127.045455,14.428911 C127.045455,14.428911 120.143997,14.428911 120.143997,17.3146932 C120.143997,20.2004754 118.181818,13.1389663 118.181818,11.5431288 L118.181818,8.73240251 C114.578575,7.35340151 108.128411,4.78617535 97.5,4.78617535 C85.6584651,4.78617535 79.7610984,6.88602813 74.7022935,8.97112368 L74.7588636,9.10752861 L74.7563667,11.0937608 L72.5391666,16.4436339 L69.8004908,15.3608351 C69.5558969,15.2641292 69.0281396,15.090392 68.2963505,14.9099044 C66.256272,14.4067419 64.1589087,14.253569 62.3040836,14.6343084 C61.6235903,14.7739931 60.9922286,14.9836085 60.4128127,15.266732 L57.7704824,16.5578701 L55.1266751,11.3962031 L55.2440909,9.10175705 L55.3248203,8.90683855 C50.9620526,6.87386374 46.9392639,4.78617535 32.5,4.78617535 C21.8721459,4.78617535 15.422131,7.3524397 11.8181818,8.7314671 L11.8181818,11.5431288 C11.8181818,13.1389663 8.86363636,20.2004754 8.86363636,17.3146932 C8.86363636,14.428911 2.95454545,14.428911 2.95454545,14.428911 C1.32363636,14.428911 0,13.1389663 0,11.5431288 L0,8.65734659 C0,7.06150904 1.32363636,5.77156439 2.95454545,5.77156439 Z" id="Stuff"></path>
                                    </g>
                                </g>
                            </g>
                        </g>
                    </g>
                </g>
            </g>
        </g>
    </g>
</svg>