<?xml version="1.0" encoding="UTF-8"?>
<svg width="76px" height="73px" viewBox="0 0 76 73" version="1.1" xmlns="http://www.w3.org/2000/svg" xmlns:xlink="http://www.w3.org/1999/xlink">
    <title>Star</title>
    <g id="Page-1" stroke="none" stroke-width="1" fill="none" fill-rule="evenodd">
        <path d="M36.6039766,62.2339329 L18.1056506,71.9590784 C16.6391169,72.7300809 14.8252354,72.1662413 14.054233,70.6997075 C13.7472158,70.1157261 13.6412717,69.4468219 13.7528023,68.796549 L17.2856682,48.1983603 C17.452582,47.2251781 17.1299365,46.2321775 16.4228783,45.542966 L1.45741815,30.9552477 C0.270967418,29.7987441 0.246690499,27.8994043 1.40319414,26.7129536 C1.86371995,26.2405027 2.46714718,25.9330411 3.12005828,25.8381676 L23.8018155,22.8329324 C24.778946,22.690947 25.6236427,22.0772389 26.0606288,21.1918085 L35.3097918,2.45095725 C36.0430586,0.965196272 37.8419362,0.355179276 39.3276971,1.08844616 C39.9193349,1.38043687 40.3982175,1.85931944 40.6902082,2.45095725 L49.9393712,21.1918085 C50.3763573,22.0772389 51.221054,22.690947 52.1981845,22.8329324 L72.8799417,25.8381676 C74.5195763,26.0764205 75.6556207,27.598749 75.4173678,29.2383836 C75.3224943,29.8912947 75.0150328,30.4947219 74.5425818,30.9552477 L59.5771217,45.542966 C58.8700635,46.2321775 58.547418,47.2251781 58.7143318,48.1983603 L62.2471977,68.796549 C62.5272808,70.4295583 61.4305173,71.9804261 59.7975079,72.2605091 C59.1472351,72.3720397 58.4783308,72.2660956 57.8943494,71.9590784 L39.3960234,62.2339329 C38.5220513,61.7744586 37.4779487,61.7744586 36.6039766,62.2339329 Z" id="Star" fill="#FFD00C"></path>
    </g>
</svg>